<mxfile host="app.diagrams.net" modified="2023-10-04T14:41:56.664Z" agent="Mozilla/5.0 (X11; Linux x86_64) AppleWebKit/537.36 (KHTML, like Gecko) Chrome/117.0.0.0 Safari/537.36 Edg/117.0.2045.47" etag="a8O-ZY4Um6NYFQ4u-Ei_" version="21.8.0" type="github">
  <diagram name="Página-1" id="YwOHLH_xfVJoGd02OG1s">
    <mxGraphModel dx="1181" dy="685" grid="1" gridSize="10" guides="1" tooltips="1" connect="1" arrows="1" fold="1" page="1" pageScale="1" pageWidth="827" pageHeight="1169" math="0" shadow="0">
      <root>
        <mxCell id="0" />
        <mxCell id="1" parent="0" />
        <mxCell id="yhVJM9ZEiQr0pTqOWml6-5" style="edgeStyle=orthogonalEdgeStyle;rounded=0;orthogonalLoop=1;jettySize=auto;html=1;exitX=0.5;exitY=0.5;exitDx=0;exitDy=0;exitPerimeter=0;entryX=0;entryY=0.5;entryDx=0;entryDy=0;endArrow=none;endFill=0;" edge="1" parent="1" source="yhVJM9ZEiQr0pTqOWml6-1" target="yhVJM9ZEiQr0pTqOWml6-2">
          <mxGeometry relative="1" as="geometry">
            <Array as="points">
              <mxPoint x="240" y="240" />
              <mxPoint x="240" y="165" />
            </Array>
          </mxGeometry>
        </mxCell>
        <mxCell id="yhVJM9ZEiQr0pTqOWml6-6" style="edgeStyle=orthogonalEdgeStyle;rounded=0;orthogonalLoop=1;jettySize=auto;html=1;exitX=0.5;exitY=0.5;exitDx=0;exitDy=0;exitPerimeter=0;entryX=0;entryY=0.5;entryDx=0;entryDy=0;endArrow=none;endFill=0;" edge="1" parent="1" source="yhVJM9ZEiQr0pTqOWml6-1" target="yhVJM9ZEiQr0pTqOWml6-4">
          <mxGeometry relative="1" as="geometry">
            <Array as="points">
              <mxPoint x="240" y="240" />
              <mxPoint x="240" y="245" />
            </Array>
          </mxGeometry>
        </mxCell>
        <mxCell id="yhVJM9ZEiQr0pTqOWml6-7" style="edgeStyle=orthogonalEdgeStyle;rounded=0;orthogonalLoop=1;jettySize=auto;html=1;exitX=0.5;exitY=0.5;exitDx=0;exitDy=0;exitPerimeter=0;entryX=0;entryY=0.5;entryDx=0;entryDy=0;endArrow=none;endFill=0;" edge="1" parent="1" source="yhVJM9ZEiQr0pTqOWml6-1" target="yhVJM9ZEiQr0pTqOWml6-3">
          <mxGeometry relative="1" as="geometry" />
        </mxCell>
        <mxCell id="yhVJM9ZEiQr0pTqOWml6-14" style="edgeStyle=orthogonalEdgeStyle;rounded=0;orthogonalLoop=1;jettySize=auto;html=1;exitX=0.5;exitY=0.5;exitDx=0;exitDy=0;exitPerimeter=0;entryX=0;entryY=0.5;entryDx=0;entryDy=0;endArrow=none;endFill=0;" edge="1" parent="1" source="yhVJM9ZEiQr0pTqOWml6-1" target="yhVJM9ZEiQr0pTqOWml6-13">
          <mxGeometry relative="1" as="geometry" />
        </mxCell>
        <mxCell id="yhVJM9ZEiQr0pTqOWml6-1" value="Usuário" style="shape=umlActor;verticalLabelPosition=bottom;verticalAlign=top;html=1;" vertex="1" parent="1">
          <mxGeometry x="160" y="210" width="30" height="60" as="geometry" />
        </mxCell>
        <mxCell id="yhVJM9ZEiQr0pTqOWml6-2" value="Criar folha" style="ellipse;whiteSpace=wrap;html=1;" vertex="1" parent="1">
          <mxGeometry x="290" y="130" width="140" height="70" as="geometry" />
        </mxCell>
        <mxCell id="yhVJM9ZEiQr0pTqOWml6-3" value="Escrever texto" style="ellipse;whiteSpace=wrap;html=1;" vertex="1" parent="1">
          <mxGeometry x="290" y="290" width="140" height="70" as="geometry" />
        </mxCell>
        <mxCell id="yhVJM9ZEiQr0pTqOWml6-4" value="Mover folha pela área de trabalho" style="ellipse;whiteSpace=wrap;html=1;" vertex="1" parent="1">
          <mxGeometry x="290" y="210" width="140" height="70" as="geometry" />
        </mxCell>
        <mxCell id="yhVJM9ZEiQr0pTqOWml6-8" value="&amp;lt;&amp;lt;Extends&amp;gt;&amp;gt;" style="endArrow=open;endSize=12;dashed=1;html=1;rounded=0;exitX=0.5;exitY=1;exitDx=0;exitDy=0;entryX=0.5;entryY=0;entryDx=0;entryDy=0;" edge="1" parent="1" target="yhVJM9ZEiQr0pTqOWml6-9">
          <mxGeometry width="160" relative="1" as="geometry">
            <mxPoint x="350" y="360" as="sourcePoint" />
            <mxPoint x="510" y="410" as="targetPoint" />
          </mxGeometry>
        </mxCell>
        <mxCell id="yhVJM9ZEiQr0pTqOWml6-9" value="Expressão aritmimética" style="ellipse;whiteSpace=wrap;html=1;" vertex="1" parent="1">
          <mxGeometry x="280" y="470" width="140" height="70" as="geometry" />
        </mxCell>
        <mxCell id="yhVJM9ZEiQr0pTqOWml6-13" value="Excluir" style="ellipse;whiteSpace=wrap;html=1;" vertex="1" parent="1">
          <mxGeometry x="290" y="50" width="140" height="70" as="geometry" />
        </mxCell>
      </root>
    </mxGraphModel>
  </diagram>
</mxfile>
